<svg width="179" height="35" viewBox="0 0 179 35" fill="none" xmlns="http://www.w3.org/2000/svg">
<line x1="112.75" y1="16.882" x2="178.75" y2="16.882" stroke="#0063A8"/>
<line y1="16.882" x2="66" y2="16.882" stroke="#0063A8"/>
<circle cx="88.875" cy="17.382" r="16" stroke="#0063A8" stroke-width="2.76396" stroke-dasharray="0.98 8.39"/>
<mask id="path-4-inside-1_4492_1161" fill="white">
<path fill-rule="evenodd" clip-rule="evenodd" d="M88.2634 6.1945C89.2483 4.31842 92.0922 5.06092 92.034 7.17888L91.8543 13.6925H95.5369C96.2888 13.6927 96.7712 14.4916 96.4216 15.1574L89.5164 28.3117C88.5315 30.1878 85.6876 29.4453 85.7459 27.3273L85.9265 20.8136H82.2429C81.4911 20.8134 81.0087 20.0146 81.3582 19.3488L88.2634 6.1945Z"/>
</mask>
<path fill-rule="evenodd" clip-rule="evenodd" d="M88.2634 6.1945C89.2483 4.31842 92.0922 5.06092 92.034 7.17888L91.8543 13.6925H95.5369C96.2888 13.6927 96.7712 14.4916 96.4216 15.1574L89.5164 28.3117C88.5315 30.1878 85.6876 29.4453 85.7459 27.3273L85.9265 20.8136H82.2429C81.4911 20.8134 81.0087 20.0146 81.3582 19.3488L88.2634 6.1945Z" fill="#FFDF4E"/>
<path d="M88.2634 6.1945L87.0346 5.54941L87.0346 5.54943L88.2634 6.1945ZM92.034 7.17888L93.4213 7.21715L93.4213 7.21704L92.034 7.17888ZM91.8543 13.6925L90.4669 13.6543L90.4276 15.0804H91.8543V13.6925ZM95.5369 13.6925L95.5371 12.3047H95.5369V13.6925ZM96.4216 15.1574L95.1928 14.5123L95.1928 14.5123L96.4216 15.1574ZM89.5164 28.3117L90.7452 28.9568L90.7452 28.9568L89.5164 28.3117ZM85.7459 27.3273L84.3585 27.2888L84.3585 27.2891L85.7459 27.3273ZM85.9265 20.8136L87.3139 20.8521L87.3534 19.4258H85.9265V20.8136ZM82.2429 20.8136L82.2424 22.2015H82.2429V20.8136ZM81.3582 19.3488L82.587 19.9939L82.587 19.9939L81.3582 19.3488ZM88.2634 6.1945L89.4923 6.83959C89.5853 6.66238 89.6948 6.58622 89.7902 6.54821C89.8995 6.50463 90.041 6.49307 90.1893 6.53177C90.3375 6.57048 90.4553 6.64975 90.5293 6.74113C90.5939 6.82083 90.6521 6.94072 90.6466 7.14071L92.034 7.17888L93.4213 7.21704C93.52 3.62864 88.7026 2.37208 87.0346 5.54941L88.2634 6.1945ZM92.034 7.17888L90.6466 7.14061L90.4669 13.6543L91.8543 13.6925L93.2416 13.7308L93.4213 7.21715L92.034 7.17888ZM91.8543 13.6925V15.0804H95.5369V13.6925V12.3047H91.8543V13.6925ZM95.5369 13.6925L95.5366 15.0804C95.2439 15.0804 95.0578 14.7696 95.1928 14.5123L96.4216 15.1574L97.6505 15.8025C98.4846 14.2136 97.3337 12.305 95.5371 12.3047L95.5369 13.6925ZM96.4216 15.1574L95.1928 14.5123L88.2875 27.6666L89.5164 28.3117L90.7452 28.9568L97.6505 15.8025L96.4216 15.1574ZM89.5164 28.3117L88.2875 27.6666C88.1945 27.8438 88.085 27.92 87.9896 27.958C87.8803 28.0016 87.7388 28.0131 87.5905 27.9744C87.4423 27.9357 87.3245 27.8565 87.2505 27.7651C87.186 27.6854 87.1277 27.5655 87.1332 27.3655L85.7459 27.3273L84.3585 27.2891C84.2598 30.8776 89.0772 32.1341 90.7452 28.9568L89.5164 28.3117ZM85.7459 27.3273L87.1332 27.3658L87.3139 20.8521L85.9265 20.8136L84.5392 20.7752L84.3585 27.2888L85.7459 27.3273ZM85.9265 20.8136V19.4258H82.2429V20.8136V22.2015H85.9265V20.8136ZM82.2429 20.8136L82.2434 19.4258C82.5357 19.4259 82.7222 19.7362 82.587 19.9939L81.3582 19.3488L80.1293 18.7037C79.2951 20.2929 80.4465 22.2009 82.2424 22.2015L82.2429 20.8136ZM81.3582 19.3488L82.587 19.9939L89.4923 6.83957L88.2634 6.1945L87.0346 5.54943L80.1293 18.7037L81.3582 19.3488Z" fill="#0063A8" mask="url(#path-4-inside-1_4492_1161)"/>
</svg>
